<svg
  id="Layer_1"
  data-name="Layer 1"
  xmlns="http://www.w3.org/2000/svg"
  viewBox="0 0 400 200"
><defs><style
    >.cls-1{fill:#06c;}.cls-2{fill:none;}.cls-3{fill:#fff;}</style></defs><path
    class="cls-1"
    d="M198.31,73.47l7.56,9.08,7.56-9.08h4v23H213V80.33h-.13l-6.66,8.1h-.62l-6.66-8.1h-.13V96.49H194.3v-23Z"
  /><path class="cls-1" d="M228.58,73.47v23h-4.45v-23Z" /><path
    class="cls-1"
    d="M240.73,73.47V93H251.9v3.48H236.28v-23Z"
  /><path
    class="cls-1"
    d="M261.92,73.47V84.1h.1l8.44-10.63h5.06L267,84.31l11.1,12.18h-5.7l-10.43-11.3v11.3h-4.44v-23Z"
  /><path
    class="cls-1"
    d="M297.83,73.47V77H287.4v6h10v3.47h-10V93h10.66v3.48H283v-23Z"
  /><path
    class="cls-1"
    d="M308.65,73.47l13.67,16.07V73.47h4.35v23h-3.82L309.09,80.16V96.49h-4.35v-23Z"
  /><path class="cls-1" d="M198.85,105.92v23H194.4v-23Z" /><path
    class="cls-1"
    d="M210.46,105.92,224.13,122V105.92h4.35v23h-3.82L210.9,112.6v16.33h-4.35v-23Z"
  /><path
    class="cls-1"
    d="M242.74,105.62a13.49,13.49,0,0,1,6.48,1.68v4a12.66,12.66,0,0,0-6.35-2.15,4.51,4.51,0,0,0-2.62.65,2,2,0,0,0-.95,1.73c0,.87.59,1.67,1.76,2.41.33.22,1.6.83,3.81,1.84a10.83,10.83,0,0,1,4.08,3,6.21,6.21,0,0,1,1.25,3.92,6,6,0,0,1-2.13,4.79,8.23,8.23,0,0,1-5.53,1.82,12.82,12.82,0,0,1-3.79-.49,16.36,16.36,0,0,1-3.57-1.67v-4.38q3.69,3.06,6.95,3.06a4.43,4.43,0,0,0,2.64-.71,2.19,2.19,0,0,0,1-1.88,3,3,0,0,0-1.74-2.6c-1-.53-2.22-1.16-3.74-1.89a11,11,0,0,1-4.06-2.89,5.83,5.83,0,0,1-1.35-3.82,5.61,5.61,0,0,1,2.16-4.62A8.86,8.86,0,0,1,242.74,105.62Z"
  /><path
    class="cls-1"
    d="M274.87,105.92v3.47H266.7v19.54h-4.45V109.39h-8.17v-3.47Z"
  /><path class="cls-1" d="M284.72,105.92v23h-4.45v-23Z" /><path
    class="cls-1"
    d="M310.91,105.92v3.47h-8.17v19.54h-4.45V109.39h-8.17v-3.47Z"
  /><path
    class="cls-1"
    d="M319.55,105.92v13.39a8,8,0,0,0,.56,3.28,4.72,4.72,0,0,0,1.84,2,5.49,5.49,0,0,0,3,.79,6.24,6.24,0,0,0,3.16-.75,4.56,4.56,0,0,0,1.9-2,8.74,8.74,0,0,0,.6-3.59V105.92h4.05v13.67q0,4.65-2.54,7.14t-7.17,2.5a10.6,10.6,0,0,1-5.05-1.14,7.67,7.67,0,0,1-3.26-3.29,10.72,10.72,0,0,1-1.12-5V105.92Z"
  /><path
    class="cls-1"
    d="M360,105.92v3.47h-8.17v19.54h-4.45V109.39h-8.17v-3.47Z"
  /><path
    class="cls-1"
    d="M380.22,105.92v3.47H369.79v6h10v3.47h-10v6.54h10.66v3.48H365.34v-23Z"
  /><circle class="cls-1" cx="96.11" cy="100.95" r="78.13" /><rect
    class="cls-2"
    x="90.81"
    y="95.96"
    width="10.52"
    height="10.52"
  /><rect
    class="cls-2"
    x="90.81"
    y="112.34"
    width="10.52"
    height="10.55"
  /><rect class="cls-2" x="74.4" y="95.96" width="10.55" height="10.52" /><rect
    class="cls-2"
    x="107.19"
    y="112.34"
    width="10.55"
    height="10.55"
  /><rect class="cls-2" x="90.81" y="79.56" width="10.52" height="10.55" /><rect
    class="cls-2"
    x="74.4"
    y="79.56"
    width="10.55"
    height="10.55"
  /><rect
    class="cls-2"
    x="107.19"
    y="79.56"
    width="10.55"
    height="10.55"
  /><rect class="cls-2" x="74.4" y="112.34" width="10.55" height="10.55" /><rect
    class="cls-2"
    x="107.19"
    y="95.96"
    width="10.55"
    height="10.52"
  /><path
    class="cls-2"
    d="M123.58,112.34v16.4H107.19v49.57a78.19,78.19,0,0,0,66.24-66Z"
  /><path
    class="cls-2"
    d="M101.33,128.74H90.81V167H85V128.74H74.4v28H68.56v-28h-28v-5.85h28V112.34H30.27v-5.84H68.56V96H18.13C18,97.6,18,99.27,18,101A78.15,78.15,0,0,0,96.11,179.1c1.76,0,3.5-.08,5.23-.19V128.74Z"
  /><path
    class="cls-2"
    d="M68.56,79.56V73.72H85V23.6A78.17,78.17,0,0,0,18.72,90.11H68.56Z"
  /><path
    class="cls-2"
    d="M101.33,73.71V35.43h5.85V73.71h10.56v-28h5.84v28h28v5.85h-28V90.12h38.29V96H123.58V106.5H174c.13-1.84.22-3.68.22-5.55A78.15,78.15,0,0,0,96.11,22.79c-1.79,0-3.56.08-5.31.2V73.71Z"
  /><polygon
    class="cls-3"
    points="107.19 73.72 107.19 79.56 117.74 79.56 117.74 73.71 107.18 73.71 107.18 73.72 107.19 73.72"
  /><polygon
    class="cls-3"
    points="74.4 79.56 84.95 79.56 84.95 73.71 68.56 73.71 68.56 73.72 74.4 73.72 74.4 79.56"
  /><polygon
    class="cls-3"
    points="90.81 79.56 101.33 79.56 101.33 73.71 90.8 73.71 90.8 73.72 90.81 73.72 90.81 79.56"
  /><rect class="cls-3" x="123.58" y="73.71" width="27.96" height="5.84" /><rect
    class="cls-3"
    x="90.81"
    y="95.95"
    width="10.52"
    height="0.01"
  /><rect class="cls-3" x="74.4" y="95.95" width="10.55" height="0.01" /><rect
    class="cls-3"
    x="123.58"
    y="90.12"
    width="38.28"
    height="5.84"
  /><rect class="cls-3" x="107.19" y="95.95" width="10.55" height="0.01" /><rect
    class="cls-3"
    x="107.19"
    y="112.33"
    width="10.55"
    height="0.01"
  /><path
    class="cls-3"
    d="M123.58,112.34h49.85q.42-2.88.61-5.84H123.58Z"
  /><rect class="cls-3" x="90.81" y="112.33" width="10.52" height="0.01" /><rect
    class="cls-3"
    x="74.4"
    y="112.33"
    width="10.55"
    height="0.01"
  /><rect
    class="cls-3"
    x="68.56"
    y="128.74"
    width="5.84"
    height="27.97"
  /><polygon
    class="cls-3"
    points="74.4 112.34 74.4 112.33 68.56 112.33 68.56 112.34 68.56 122.89 74.4 122.89 74.4 112.34"
  /><polygon
    class="cls-3"
    points="74.4 95.96 74.4 95.95 68.56 95.95 68.56 95.96 68.56 106.49 74.4 106.49 74.4 95.96"
  /><polygon
    class="cls-3"
    points="74.4 73.72 68.56 73.72 68.56 79.56 68.56 90.11 74.4 90.11 74.4 79.56 74.4 73.72"
  /><polygon
    class="cls-3"
    points="84.96 128.74 84.96 167.03 90.81 167.03 90.81 128.74 90.8 128.74 84.96 128.74"
  /><polygon
    class="cls-3"
    points="90.8 106.49 90.81 106.49 90.81 95.96 90.81 95.95 90.8 95.95 90.8 106.49"
  /><polygon
    class="cls-3"
    points="90.81 73.72 90.8 73.72 90.8 90.11 90.81 90.11 90.81 79.56 90.81 73.72"
  /><polygon
    class="cls-3"
    points="90.81 112.33 90.8 112.33 90.8 122.89 90.81 122.89 90.81 112.34 90.81 112.33"
  /><path
    class="cls-3"
    d="M107.18,128.74h-5.84v50.17q3-.19,5.85-.6V128.74Z"
  /><polygon
    class="cls-3"
    points="107.18 106.49 107.19 106.49 107.19 95.96 107.19 95.95 107.18 95.95 107.18 106.49"
  /><polygon
    class="cls-3"
    points="107.19 73.72 107.18 73.72 107.18 90.11 107.19 90.11 107.19 79.56 107.19 73.72"
  /><polygon
    class="cls-3"
    points="107.19 112.33 107.18 112.33 107.18 122.89 107.19 122.89 107.19 112.34 107.19 112.33"
  /><polygon
    class="cls-3"
    points="123.58 95.96 123.58 90.12 123.58 79.56 123.58 73.71 123.58 45.75 117.74 45.75 117.74 73.71 117.74 79.56 117.74 90.11 123.58 90.11 123.58 95.95 117.74 95.95 117.74 95.96 117.74 106.49 123.58 106.49 123.58 112.33 117.74 112.33 117.74 112.34 117.74 122.89 123.58 122.89 123.58 128.74 123.58 128.74 123.58 112.34 123.58 106.5 123.58 95.96"
  /><polygon
    class="cls-3"
    points="101.33 106.49 107.18 106.49 107.18 95.95 101.33 95.95 101.33 95.96 101.33 106.49"
  /><polygon
    class="cls-3"
    points="107.18 73.72 107.18 73.71 107.18 35.43 101.33 35.43 101.33 73.71 101.33 79.56 101.33 90.11 107.18 90.11 107.18 73.72"
  /><polygon
    class="cls-3"
    points="107.18 112.33 101.33 112.33 101.33 112.34 101.33 122.89 107.18 122.89 107.18 112.33"
  /><polygon
    class="cls-3"
    points="84.95 106.49 90.8 106.49 90.8 95.95 84.95 95.95 84.95 95.96 84.95 106.49"
  /><path
    class="cls-3"
    d="M85,79.56V90.11H90.8V73.72h0V23q-3,.2-5.85.61v56Z"
  /><polygon
    class="cls-3"
    points="90.8 112.33 84.95 112.33 84.95 112.34 84.95 122.89 90.8 122.89 90.8 112.33"
  /><polygon
    class="cls-3"
    points="117.74 122.89 107.19 122.89 107.18 122.89 101.33 122.89 90.81 122.89 90.8 122.89 84.95 122.89 74.4 122.89 68.56 122.89 40.59 122.89 40.59 128.74 68.56 128.74 74.4 128.74 84.95 128.74 84.96 128.74 90.8 128.74 90.81 128.74 101.33 128.74 101.34 128.74 107.18 128.74 107.19 128.74 117.74 128.74 123.58 128.74 123.58 122.89 117.74 122.89"
  /><polygon
    class="cls-3"
    points="84.95 112.33 90.8 112.33 90.81 112.33 101.33 112.33 107.18 112.33 107.19 112.33 117.74 112.33 123.58 112.33 123.58 106.49 117.74 106.49 107.19 106.49 107.18 106.49 101.33 106.49 90.81 106.49 90.8 106.49 84.95 106.49 74.4 106.49 68.56 106.49 30.27 106.49 30.27 112.33 68.56 112.33 74.4 112.33 84.95 112.33"
  /><path
    class="cls-3"
    d="M74.4,96h49.18V90.11H18.72Q18.31,93,18.13,96H74.4Z"
  /></svg>
